<svg width="1100" height="1100" viewBox="0 0 1100 1100" fill="none" xmlns="http://www.w3.org/2000/svg">
<rect width="1100" height="1100" rx="12" fill="white"/>
<path d="M89.8502 865.055V777.069H104.305V865.055H89.8502ZM99.78 827.347V814.149H144.527V827.347H99.78ZM99.78 790.267V777.069H146.664V790.267H99.78ZM184.479 866.312C178.613 866.312 173.292 864.929 168.516 862.164C163.739 859.315 159.927 855.502 157.078 850.726C154.312 845.949 152.93 840.628 152.93 834.762C152.93 828.897 154.312 823.618 157.078 818.925C159.927 814.232 163.739 810.504 168.516 807.738C173.292 804.889 178.613 803.465 184.479 803.465C190.428 803.465 195.791 804.847 200.568 807.613C205.344 810.378 209.115 814.149 211.88 818.925C214.729 823.618 216.154 828.897 216.154 834.762C216.154 840.628 214.729 845.949 211.88 850.726C209.115 855.502 205.344 859.315 200.568 862.164C195.791 864.929 190.428 866.312 184.479 866.312ZM184.479 852.988C187.915 852.988 190.931 852.234 193.529 850.726C196.21 849.133 198.263 846.955 199.688 844.19C201.196 841.424 201.95 838.282 201.95 834.762C201.95 831.243 201.196 828.143 199.688 825.461C198.18 822.78 196.127 820.685 193.529 819.176C190.931 817.584 187.915 816.788 184.479 816.788C181.127 816.788 178.11 817.584 175.429 819.176C172.831 820.685 170.778 822.78 169.27 825.461C167.845 828.143 167.133 831.243 167.133 834.762C167.133 838.282 167.845 841.424 169.27 844.19C170.778 846.955 172.831 849.133 175.429 850.726C178.11 852.234 181.127 852.988 184.479 852.988ZM235.109 865.055V779.583H248.935V865.055H235.109ZM220.654 817.291V804.722H263.39V817.291H220.654ZM299.371 866.312C293.505 866.312 288.184 864.929 283.408 862.164C278.631 859.315 274.819 855.502 271.97 850.726C269.204 845.949 267.822 840.628 267.822 834.762C267.822 828.897 269.204 823.618 271.97 818.925C274.819 814.232 278.631 810.504 283.408 807.738C288.184 804.889 293.505 803.465 299.371 803.465C305.32 803.465 310.683 804.847 315.46 807.613C320.236 810.378 324.007 814.149 326.772 818.925C329.621 823.618 331.046 828.897 331.046 834.762C331.046 840.628 329.621 845.949 326.772 850.726C324.007 855.502 320.236 859.315 315.46 862.164C310.683 864.929 305.32 866.312 299.371 866.312ZM299.371 852.988C302.807 852.988 305.823 852.234 308.421 850.726C311.102 849.133 313.155 846.955 314.58 844.19C316.088 841.424 316.842 838.282 316.842 834.762C316.842 831.243 316.088 828.143 314.58 825.461C313.072 822.78 311.019 820.685 308.421 819.176C305.823 817.584 302.807 816.788 299.371 816.788C296.019 816.788 293.002 817.584 290.321 819.176C287.723 820.685 285.67 822.78 284.162 825.461C282.737 828.143 282.025 831.243 282.025 834.762C282.025 838.282 282.737 841.424 284.162 844.19C285.67 846.955 287.723 849.133 290.321 850.726C293.002 852.234 296.019 852.988 299.371 852.988ZM369.593 865.055V777.069H384.047V865.055H369.593ZM442.571 865.055V830.237C442.571 826.215 441.272 822.905 438.674 820.308C436.16 817.71 432.892 816.411 428.87 816.411C426.189 816.411 423.8 816.998 421.705 818.171C419.611 819.344 417.977 820.978 416.803 823.073C415.63 825.168 415.044 827.556 415.044 830.237L409.639 827.221C409.639 822.612 410.644 818.548 412.655 815.029C414.667 811.425 417.432 808.618 420.951 806.607C424.554 804.512 428.577 803.465 433.018 803.465C437.543 803.465 441.565 804.638 445.084 806.984C448.604 809.247 451.369 812.221 453.38 815.908C455.391 819.512 456.397 823.282 456.397 827.221V865.055H442.571ZM401.217 865.055V804.722H415.044V865.055H401.217ZM495.712 866.312C490.265 866.312 485.321 864.929 480.88 862.164C476.522 859.398 473.045 855.67 470.447 850.977C467.933 846.201 466.676 840.88 466.676 835.014C466.676 829.064 467.933 823.743 470.447 819.051C473.045 814.274 476.522 810.504 480.88 807.738C485.321 804.889 490.265 803.465 495.712 803.465C500.32 803.465 504.385 804.47 507.904 806.481C511.507 808.409 514.356 811.09 516.451 814.526C518.546 817.961 519.593 821.858 519.593 826.215V843.561C519.593 847.918 518.546 851.815 516.451 855.251C514.44 858.686 511.633 861.41 508.03 863.421C504.426 865.348 500.32 866.312 495.712 866.312ZM497.974 853.239C501.41 853.239 504.385 852.485 506.898 850.977C509.496 849.385 511.507 847.206 512.932 844.441C514.356 841.676 515.068 838.491 515.068 834.888C515.068 831.285 514.356 828.101 512.932 825.335C511.507 822.57 509.496 820.433 506.898 818.925C504.385 817.333 501.41 816.537 497.974 816.537C494.622 816.537 491.648 817.333 489.05 818.925C486.536 820.433 484.525 822.57 483.017 825.335C481.592 828.101 480.88 831.285 480.88 834.888C480.88 838.491 481.592 841.676 483.017 844.441C484.525 847.206 486.536 849.385 489.05 850.977C491.648 852.485 494.622 853.239 497.974 853.239ZM528.015 865.055H514.189V848.84L516.577 834.134L514.189 819.554V774.555H528.015V865.055ZM543.485 865.055V804.722H557.311V865.055H543.485ZM550.398 793.661C548.052 793.661 546.083 792.865 544.491 791.272C542.982 789.68 542.228 787.711 542.228 785.365C542.228 783.019 542.982 781.049 544.491 779.457C546.083 777.865 548.052 777.069 550.398 777.069C552.828 777.069 554.798 777.865 556.306 779.457C557.814 781.049 558.568 783.019 558.568 785.365C558.568 787.711 557.814 789.68 556.306 791.272C554.798 792.865 552.828 793.661 550.398 793.661ZM592.553 866.312C589.201 866.312 585.975 865.893 582.874 865.055C579.774 864.133 576.925 862.876 574.327 861.284C571.73 859.608 569.467 857.597 567.54 855.251L576.338 846.452C578.433 848.882 580.821 850.726 583.503 851.983C586.268 853.156 589.369 853.742 592.804 853.742C595.905 853.742 598.251 853.281 599.843 852.36C601.435 851.438 602.231 850.097 602.231 848.337C602.231 846.494 601.477 845.069 599.969 844.064C598.46 843.058 596.491 842.22 594.061 841.55C591.715 840.796 589.201 840.042 586.52 839.287C583.922 838.533 581.408 837.528 578.978 836.271C576.632 834.93 574.704 833.128 573.196 830.866C571.688 828.603 570.933 825.671 570.933 822.067C570.933 818.213 571.813 814.903 573.573 812.138C575.417 809.372 577.972 807.236 581.24 805.727C584.592 804.219 588.573 803.465 593.181 803.465C598.041 803.465 602.315 804.345 606.002 806.104C609.773 807.78 612.915 810.336 615.429 813.772L606.631 822.57C604.871 820.391 602.86 818.757 600.597 817.668C598.335 816.579 595.737 816.034 592.804 816.034C590.039 816.034 587.902 816.453 586.394 817.291C584.885 818.129 584.131 819.344 584.131 820.936C584.131 822.612 584.885 823.911 586.394 824.833C587.902 825.754 589.829 826.55 592.176 827.221C594.606 827.891 597.12 828.645 599.717 829.483C602.399 830.237 604.913 831.327 607.259 832.751C609.689 834.092 611.658 835.936 613.167 838.282C614.675 840.544 615.429 843.519 615.429 847.206C615.429 853.072 613.376 857.723 609.27 861.158C605.164 864.594 599.592 866.312 592.553 866.312ZM659.131 866.312C654.523 866.312 650.417 865.348 646.813 863.421C643.21 861.41 640.361 858.686 638.266 855.251C636.255 851.815 635.249 847.918 635.249 843.561V826.215C635.249 821.858 636.297 817.961 638.392 814.526C640.487 811.09 643.336 808.409 646.939 806.481C650.542 804.47 654.606 803.465 659.131 803.465C664.578 803.465 669.48 804.889 673.837 807.738C678.279 810.504 681.756 814.274 684.27 819.051C686.868 823.743 688.167 829.064 688.167 835.014C688.167 840.88 686.868 846.201 684.27 850.977C681.756 855.67 678.279 859.398 673.837 862.164C669.48 864.929 664.578 866.312 659.131 866.312ZM626.828 890.193V804.722H640.654V820.936L638.266 835.642L640.654 850.223V890.193H626.828ZM656.869 853.239C660.221 853.239 663.153 852.485 665.667 850.977C668.265 849.385 670.276 847.206 671.701 844.441C673.209 841.676 673.963 838.491 673.963 834.888C673.963 831.285 673.209 828.101 671.701 825.335C670.276 822.57 668.265 820.433 665.667 818.925C663.153 817.333 660.221 816.537 656.869 816.537C653.517 816.537 650.542 817.333 647.945 818.925C645.347 820.433 643.336 822.57 641.911 825.335C640.487 828.101 639.774 831.285 639.774 834.888C639.774 838.491 640.487 841.676 641.911 844.441C643.336 847.206 645.347 849.385 647.945 850.977C650.542 852.485 653.517 853.239 656.869 853.239ZM727.393 866.312C721.527 866.312 716.206 864.929 711.43 862.164C706.653 859.315 702.841 855.502 699.992 850.726C697.226 845.949 695.844 840.628 695.844 834.762C695.844 828.897 697.226 823.618 699.992 818.925C702.841 814.232 706.653 810.504 711.43 807.738C716.206 804.889 721.527 803.465 727.393 803.465C733.342 803.465 738.705 804.847 743.482 807.613C748.258 810.378 752.029 814.149 754.794 818.925C757.643 823.618 759.068 828.897 759.068 834.762C759.068 840.628 757.643 845.949 754.794 850.726C752.029 855.502 748.258 859.315 743.482 862.164C738.705 864.929 733.342 866.312 727.393 866.312ZM727.393 852.988C730.828 852.988 733.845 852.234 736.443 850.726C739.124 849.133 741.177 846.955 742.602 844.19C744.11 841.424 744.864 838.282 744.864 834.762C744.864 831.243 744.11 828.143 742.602 825.461C741.093 822.78 739.04 820.685 736.443 819.176C733.845 817.584 730.828 816.788 727.393 816.788C724.041 816.788 721.024 817.584 718.343 819.176C715.745 820.685 713.692 822.78 712.184 825.461C710.759 828.143 710.047 831.243 710.047 834.762C710.047 838.282 710.759 841.424 712.184 844.19C713.692 846.955 715.745 849.133 718.343 850.726C721.024 852.234 724.041 852.988 727.393 852.988ZM811.919 865.055V830.237C811.919 826.215 810.62 822.905 808.022 820.308C805.509 817.71 802.241 816.411 798.218 816.411C795.537 816.411 793.149 816.998 791.054 818.171C788.959 819.344 787.325 820.978 786.152 823.073C784.979 825.168 784.392 827.556 784.392 830.237L778.987 827.221C778.987 822.612 779.993 818.548 782.004 815.029C784.015 811.425 786.78 808.618 790.3 806.607C793.903 804.512 797.925 803.465 802.366 803.465C806.891 803.465 810.913 804.638 814.433 806.984C817.952 809.247 820.718 812.221 822.729 815.908C824.74 819.512 825.745 823.282 825.745 827.221V865.055H811.919ZM770.566 865.055V804.722H784.392V865.055H770.566ZM839.796 865.055V804.722H853.622V865.055H839.796ZM839.544 796.049L833.259 789.764L849.348 769.276L860.032 779.96L839.544 796.049ZM889.372 865.055L861.845 804.722H877.18L898.171 853.868H889.121L910.237 804.722H924.943L897.416 865.055H889.372ZM959.027 866.312C952.994 866.312 947.547 864.971 942.687 862.289C937.91 859.524 934.098 855.753 931.249 850.977C928.483 846.201 927.101 840.838 927.101 834.888C927.101 828.939 928.483 823.618 931.249 818.925C934.014 814.149 937.743 810.378 942.435 807.613C947.212 804.847 952.491 803.465 958.273 803.465C963.887 803.465 968.831 804.764 973.105 807.361C977.462 809.959 980.856 813.52 983.286 818.045C985.8 822.57 987.057 827.724 987.057 833.506C987.057 834.511 986.973 835.559 986.805 836.648C986.721 837.653 986.554 838.785 986.303 840.042H936.779V828.729H979.138L973.985 833.254C973.817 829.567 973.105 826.467 971.848 823.953C970.591 821.439 968.789 819.512 966.443 818.171C964.18 816.83 961.373 816.16 958.021 816.16C954.502 816.16 951.443 816.914 948.846 818.422C946.248 819.931 944.237 822.067 942.812 824.833C941.388 827.514 940.676 830.74 940.676 834.511C940.676 838.282 941.43 841.592 942.938 844.441C944.446 847.29 946.583 849.511 949.349 851.103C952.114 852.611 955.298 853.365 958.901 853.365C962.002 853.365 964.851 852.82 967.448 851.731C970.13 850.642 972.392 849.05 974.236 846.955L983.034 855.879C980.102 859.315 976.54 861.912 972.35 863.672C968.161 865.432 963.72 866.312 959.027 866.312ZM998.14 865.055V774.555H1011.97V865.055H998.14Z" fill="black"/>
<path d="M43.514 1010.05V947.248H49.487L52.021 957.112V1010.05H43.514ZM86.9538 1010.05L48.401 958.56L49.487 947.248L88.1303 998.652L86.9538 1010.05ZM86.9538 1010.05L84.4198 1000.73V947.248H92.9268V1010.05H86.9538ZM126.227 1010.96C121.943 1010.96 118.082 1009.99 114.643 1008.06C111.204 1006.07 108.489 1003.39 106.498 1000.01C104.507 996.631 103.512 992.799 103.512 988.516C103.512 984.292 104.477 980.491 106.408 977.113C108.399 973.734 111.053 971.08 114.372 969.149C117.75 967.158 121.521 966.162 125.684 966.162C129.666 966.162 133.165 967.067 136.182 968.877C139.259 970.687 141.642 973.191 143.332 976.389C145.081 979.587 145.956 983.206 145.956 987.249C145.956 987.852 145.926 988.516 145.866 989.24C145.805 989.903 145.685 990.688 145.504 991.593H109.213V984.805H141.16L138.173 987.43C138.173 984.534 137.66 982.09 136.635 980.099C135.609 978.048 134.161 976.479 132.291 975.393C130.42 974.247 128.158 973.674 125.503 973.674C122.728 973.674 120.284 974.277 118.173 975.484C116.061 976.691 114.432 978.38 113.286 980.552C112.139 982.724 111.566 985.288 111.566 988.244C111.566 991.261 112.17 993.916 113.376 996.208C114.583 998.441 116.302 1000.19 118.535 1001.46C120.767 1002.66 123.331 1003.27 126.227 1003.27C128.64 1003.27 130.843 1002.84 132.834 1002C134.885 1001.16 136.635 999.889 138.083 998.199L143.332 1003.54C141.28 1005.95 138.746 1007.79 135.73 1009.06C132.773 1010.33 129.606 1010.96 126.227 1010.96ZM185.245 1010.05V984.986C185.245 981.728 184.219 979.044 182.168 976.932C180.117 974.82 177.462 973.764 174.204 973.764C172.032 973.764 170.101 974.247 168.412 975.212C166.723 976.178 165.395 977.505 164.43 979.194C163.465 980.884 162.982 982.814 162.982 984.986L159.633 983.086C159.633 979.828 160.357 976.932 161.805 974.398C163.253 971.864 165.275 969.873 167.869 968.425C170.463 966.917 173.389 966.162 176.647 966.162C179.905 966.162 182.771 966.977 185.245 968.606C187.779 970.235 189.77 972.377 191.218 975.031C192.666 977.626 193.39 980.401 193.39 983.357V1010.05H185.245ZM154.837 1010.05V967.067H162.982V1010.05H154.837ZM234.825 1010.05V984.986C234.825 981.728 233.799 979.044 231.748 976.932C229.697 974.82 227.042 973.764 223.784 973.764C221.612 973.764 219.682 974.247 217.992 975.212C216.303 976.178 214.976 977.505 214.01 979.194C213.045 980.884 212.562 982.814 212.562 984.986L209.214 983.086C209.214 979.828 209.938 976.932 211.386 974.398C212.834 971.864 214.855 969.873 217.449 968.425C220.044 966.917 222.97 966.162 226.228 966.162C229.486 966.162 232.352 966.886 234.825 968.334C237.359 969.782 239.35 971.804 240.798 974.398C242.246 976.992 242.97 979.979 242.97 983.357V1010.05H234.825ZM204.417 1010.05V945.438H212.562V1010.05H204.417ZM271.283 1010.96C267.784 1010.96 264.616 1010.18 261.781 1008.61C259.005 1006.98 256.833 1004.75 255.265 1001.91C253.696 999.074 252.912 995.786 252.912 992.045V967.067H261.057V991.683C261.057 994.036 261.449 996.088 262.233 997.837C263.078 999.527 264.284 1000.82 265.853 1001.73C267.422 1002.63 269.262 1003.09 271.374 1003.09C274.571 1003.09 277.075 1002.09 278.885 1000.1C280.695 998.048 281.6 995.243 281.6 991.683V967.067H289.745V992.045C289.745 995.786 288.961 999.074 287.392 1001.91C285.823 1004.75 283.651 1006.98 280.876 1008.61C278.161 1010.18 274.963 1010.96 271.283 1010.96ZM300.661 1010.05V967.067H308.806V1010.05H300.661ZM329.712 1010.05V984.081C329.712 980.884 328.716 978.38 326.725 976.57C324.795 974.7 322.351 973.764 319.395 973.764C317.404 973.764 315.624 974.187 314.055 975.031C312.487 975.876 311.22 977.053 310.254 978.561C309.289 980.069 308.806 981.879 308.806 983.991L305.458 982.362C305.458 979.104 306.152 976.268 307.539 973.855C308.987 971.442 310.948 969.571 313.422 968.244C315.896 966.856 318.671 966.162 321.748 966.162C324.764 966.162 327.479 966.826 329.893 968.153C332.366 969.481 334.297 971.351 335.685 973.764C337.133 976.178 337.857 979.044 337.857 982.362V1010.05H329.712ZM358.762 1010.05V984.081C358.762 980.884 357.767 978.38 355.776 976.57C353.845 974.7 351.432 973.764 348.536 973.764C346.545 973.764 344.735 974.187 343.106 975.031C341.537 975.876 340.27 977.053 339.305 978.561C338.339 980.069 337.857 981.879 337.857 983.991L333.241 982.362C333.422 979.044 334.297 976.208 335.866 973.855C337.495 971.442 339.576 969.571 342.11 968.244C344.644 966.856 347.42 966.162 350.436 966.162C353.574 966.162 356.379 966.826 358.853 968.153C361.326 969.481 363.287 971.351 364.735 973.764C366.243 976.178 366.998 979.074 366.998 982.452V1010.05H358.762ZM396.362 1010.96C392.44 1010.96 388.881 1009.99 385.683 1008.06C382.485 1006.07 379.951 1003.39 378.081 1000.01C376.271 996.631 375.366 992.83 375.366 988.606C375.366 984.383 376.271 980.582 378.081 977.203C379.951 973.825 382.455 971.14 385.592 969.149C388.79 967.158 392.38 966.162 396.362 966.162C399.62 966.162 402.516 966.856 405.05 968.244C407.644 969.571 409.726 971.442 411.294 973.855C412.863 976.208 413.738 978.953 413.919 982.09V995.032C413.738 998.109 412.863 1000.85 411.294 1003.27C409.786 1005.68 407.735 1007.58 405.14 1008.97C402.606 1010.3 399.68 1010.96 396.362 1010.96ZM397.719 1003.27C401.762 1003.27 405.02 1001.91 407.493 999.195C409.967 996.419 411.204 992.89 411.204 988.606C411.204 985.65 410.631 983.086 409.484 980.914C408.398 978.682 406.83 976.962 404.778 975.755C402.727 974.488 400.344 973.855 397.629 973.855C394.914 973.855 392.501 974.488 390.389 975.755C388.338 977.022 386.709 978.772 385.502 981.004C384.356 983.176 383.782 985.68 383.782 988.516C383.782 991.412 384.356 993.976 385.502 996.208C386.709 998.38 388.368 1000.1 390.479 1001.37C392.591 1002.63 395.004 1003.27 397.719 1003.27ZM410.661 1010.05V998.471L412.199 987.973L410.661 977.565V967.067H418.896V1010.05H410.661ZM455.733 1010.05V960.642C455.733 957.444 456.427 954.669 457.815 952.316C459.202 949.903 461.103 948.002 463.516 946.614C465.99 945.227 468.856 944.533 472.114 944.533C474.587 944.533 476.729 944.955 478.539 945.8C480.349 946.645 482.008 947.881 483.517 949.51L478.177 954.759C477.393 953.915 476.518 953.281 475.553 952.859C474.587 952.376 473.411 952.135 472.023 952.135C469.429 952.135 467.408 952.889 465.96 954.397C464.572 955.906 463.878 957.987 463.878 960.642V1010.05H455.733ZM445.145 974.488V967.067H477.544V974.488H445.145ZM502.89 1010.96C498.666 1010.96 494.865 1009.96 491.487 1007.97C488.108 1005.98 485.423 1003.3 483.432 999.919C481.441 996.48 480.446 992.649 480.446 988.425C480.446 984.262 481.441 980.522 483.432 977.203C485.423 973.825 488.108 971.14 491.487 969.149C494.865 967.158 498.666 966.162 502.89 966.162C507.053 966.162 510.824 967.158 514.202 969.149C517.641 971.08 520.356 973.734 522.347 977.113C524.338 980.491 525.334 984.262 525.334 988.425C525.334 992.649 524.338 996.48 522.347 999.919C520.356 1003.3 517.641 1005.98 514.202 1007.97C510.824 1009.96 507.053 1010.96 502.89 1010.96ZM502.89 1003.09C505.605 1003.09 508.018 1002.45 510.13 1001.19C512.241 999.919 513.901 998.199 515.107 996.027C516.314 993.795 516.917 991.261 516.917 988.425C516.917 985.65 516.284 983.176 515.017 981.004C513.81 978.832 512.151 977.143 510.039 975.936C507.988 974.669 505.605 974.036 502.89 974.036C500.175 974.036 497.761 974.669 495.65 975.936C493.538 977.143 491.879 978.832 490.672 981.004C489.466 983.176 488.862 985.65 488.862 988.425C488.862 991.261 489.466 993.795 490.672 996.027C491.879 998.199 493.538 999.919 495.65 1001.19C497.761 1002.45 500.175 1003.09 502.89 1003.09ZM539.792 1010.05V949.058H547.937V1010.05H539.792ZM529.203 974.488V967.067H558.525V974.488H529.203ZM584.817 1010.96C580.593 1010.96 576.792 1009.96 573.414 1007.97C570.035 1005.98 567.35 1003.3 565.359 999.919C563.368 996.48 562.373 992.649 562.373 988.425C562.373 984.262 563.368 980.522 565.359 977.203C567.35 973.825 570.035 971.14 573.414 969.149C576.792 967.158 580.593 966.162 584.817 966.162C588.98 966.162 592.75 967.158 596.129 969.149C599.568 971.08 602.283 973.734 604.274 977.113C606.265 980.491 607.261 984.262 607.261 988.425C607.261 992.649 606.265 996.48 604.274 999.919C602.283 1003.3 599.568 1005.98 596.129 1007.97C592.75 1009.96 588.98 1010.96 584.817 1010.96ZM584.817 1003.09C587.532 1003.09 589.945 1002.45 592.057 1001.19C594.168 999.919 595.827 998.199 597.034 996.027C598.241 993.795 598.844 991.261 598.844 988.425C598.844 985.65 598.211 983.176 596.944 981.004C595.737 978.832 594.078 977.143 591.966 975.936C589.915 974.669 587.532 974.036 584.817 974.036C582.102 974.036 579.688 974.669 577.577 975.936C575.465 977.143 573.806 978.832 572.599 981.004C571.393 983.176 570.789 985.65 570.789 988.425C570.789 991.261 571.393 993.795 572.599 996.027C573.806 998.199 575.465 999.919 577.577 1001.19C579.688 1002.45 582.102 1003.09 584.817 1003.09ZM657.887 1010.96C654.629 1010.96 651.673 1010.3 649.018 1008.97C646.424 1007.58 644.342 1005.68 642.774 1003.27C641.205 1000.85 640.33 998.109 640.149 995.032V982.09C640.33 978.953 641.205 976.208 642.774 973.855C644.403 971.442 646.514 969.571 649.109 968.244C651.763 966.856 654.69 966.162 657.887 966.162C661.809 966.162 665.338 967.158 668.476 969.149C671.673 971.14 674.177 973.825 675.987 977.203C677.797 980.582 678.702 984.383 678.702 988.606C678.702 992.83 677.797 996.631 675.987 1000.01C674.177 1003.39 671.673 1006.07 668.476 1008.06C665.338 1009.99 661.809 1010.96 657.887 1010.96ZM635.262 1028.06V967.067H643.407V978.38L641.869 988.787L643.407 999.285V1028.06H635.262ZM656.53 1003.27C659.245 1003.27 661.628 1002.63 663.679 1001.37C665.731 1000.1 667.36 998.38 668.566 996.208C669.773 993.976 670.376 991.412 670.376 988.516C670.376 985.68 669.773 983.146 668.566 980.914C667.36 978.682 665.731 976.962 663.679 975.755C661.628 974.488 659.275 973.855 656.62 973.855C653.905 973.855 651.522 974.488 649.471 975.755C647.419 976.962 645.821 978.682 644.674 980.914C643.528 983.146 642.955 985.71 642.955 988.606C642.955 991.442 643.498 993.976 644.584 996.208C645.73 998.38 647.329 1000.1 649.38 1001.37C651.492 1002.63 653.875 1003.27 656.53 1003.27ZM706.217 1010.96C702.295 1010.96 698.736 1009.99 695.538 1008.06C692.34 1006.07 689.806 1003.39 687.936 1000.01C686.126 996.631 685.221 992.83 685.221 988.606C685.221 984.383 686.126 980.582 687.936 977.203C689.806 973.825 692.31 971.14 695.447 969.149C698.645 967.158 702.235 966.162 706.217 966.162C709.475 966.162 712.371 966.856 714.905 968.244C717.499 969.571 719.581 971.442 721.149 973.855C722.718 976.208 723.593 978.953 723.774 982.09V995.032C723.593 998.109 722.718 1000.85 721.149 1003.27C719.641 1005.68 717.59 1007.58 714.995 1008.97C712.461 1010.3 709.535 1010.96 706.217 1010.96ZM707.574 1003.27C711.617 1003.27 714.875 1001.91 717.348 999.195C719.822 996.419 721.059 992.89 721.059 988.606C721.059 985.65 720.486 983.086 719.339 980.914C718.253 978.682 716.685 976.962 714.633 975.755C712.582 974.488 710.199 973.855 707.484 973.855C704.769 973.855 702.356 974.488 700.244 975.755C698.193 977.022 696.564 978.772 695.357 981.004C694.211 983.176 693.637 985.68 693.637 988.516C693.637 991.412 694.211 993.976 695.357 996.208C696.564 998.38 698.223 1000.1 700.334 1001.37C702.446 1002.63 704.859 1003.27 707.574 1003.27ZM720.516 1010.05V998.471L722.054 987.973L720.516 977.565V967.067H728.751V1010.05H720.516ZM740.61 1010.05V967.067H748.754V1010.05H740.61ZM748.754 985.529L745.677 984.172C745.677 978.682 746.944 974.307 749.478 971.049C752.012 967.791 755.663 966.162 760.429 966.162C762.601 966.162 764.562 966.555 766.311 967.339C768.061 968.063 769.69 969.3 771.198 971.049L765.859 976.57C764.954 975.605 763.958 974.911 762.872 974.488C761.786 974.066 760.519 973.855 759.071 973.855C756.055 973.855 753.581 974.82 751.65 976.751C749.72 978.682 748.754 981.608 748.754 985.529ZM793.8 1010.96C789.878 1010.96 786.319 1009.99 783.121 1008.06C779.923 1006.07 777.389 1003.39 775.519 1000.01C773.709 996.631 772.804 992.83 772.804 988.606C772.804 984.383 773.709 980.582 775.519 977.203C777.389 973.825 779.893 971.14 783.03 969.149C786.228 967.158 789.818 966.162 793.8 966.162C797.058 966.162 799.954 966.856 802.488 968.244C805.082 969.571 807.164 971.442 808.732 973.855C810.301 976.208 811.176 978.953 811.357 982.09V995.032C811.176 998.109 810.301 1000.85 808.732 1003.27C807.224 1005.68 805.173 1007.58 802.578 1008.97C800.044 1010.3 797.118 1010.96 793.8 1010.96ZM795.157 1003.27C799.2 1003.27 802.458 1001.91 804.931 999.195C807.405 996.419 808.642 992.89 808.642 988.606C808.642 985.65 808.069 983.086 806.922 980.914C805.836 978.682 804.268 976.962 802.216 975.755C800.165 974.488 797.782 973.855 795.067 973.855C792.352 973.855 789.939 974.488 787.827 975.755C785.776 977.022 784.147 978.772 782.94 981.004C781.794 983.176 781.22 985.68 781.22 988.516C781.22 991.412 781.794 993.976 782.94 996.208C784.147 998.38 785.806 1000.1 787.917 1001.37C790.029 1002.63 792.442 1003.27 795.157 1003.27ZM808.099 1010.05V998.471L809.637 987.973L808.099 977.565V967.067H816.334V1010.05H808.099ZM866.927 1010.96C862.643 1010.96 858.782 1009.99 855.343 1008.06C851.904 1006.07 849.189 1003.39 847.198 1000.01C845.207 996.631 844.212 992.799 844.212 988.516C844.212 984.292 845.177 980.491 847.108 977.113C849.099 973.734 851.753 971.08 855.072 969.149C858.45 967.158 862.221 966.162 866.384 966.162C870.366 966.162 873.865 967.067 876.882 968.877C879.959 970.687 882.342 973.191 884.031 976.389C885.781 979.587 886.656 983.206 886.656 987.249C886.656 987.852 886.626 988.516 886.565 989.24C886.505 989.903 886.384 990.688 886.203 991.593H849.913V984.805H881.859L878.873 987.43C878.873 984.534 878.36 982.09 877.335 980.099C876.309 978.048 874.861 976.479 872.991 975.393C871.12 974.247 868.858 973.674 866.203 973.674C863.428 973.674 860.984 974.277 858.873 975.484C856.761 976.691 855.132 978.38 853.986 980.552C852.839 982.724 852.266 985.288 852.266 988.244C852.266 991.261 852.869 993.916 854.076 996.208C855.283 998.441 857.002 1000.19 859.235 1001.46C861.467 1002.66 864.031 1003.27 866.927 1003.27C869.34 1003.27 871.543 1002.84 873.534 1002C875.585 1001.16 877.335 999.889 878.783 998.199L884.031 1003.54C881.98 1005.95 879.446 1007.79 876.43 1009.06C873.473 1010.33 870.306 1010.96 866.927 1010.96ZM922.447 1010.05L909.053 991.231L907.515 989.783L890.591 967.067H900.456L912.673 983.81L914.212 985.077L932.312 1010.05H922.447ZM889.777 1010.05L907.515 986.163L912.13 992.136L899.37 1010.05H889.777ZM914.845 989.692L910.139 983.9L921.995 967.067H931.497L914.845 989.692ZM939.905 1010.05V967.067H948.05V1010.05H939.905ZM943.978 958.47C942.469 958.47 941.232 957.987 940.267 957.022C939.302 955.996 938.819 954.729 938.819 953.221C938.819 951.773 939.302 950.566 940.267 949.601C941.232 948.575 942.469 948.062 943.978 948.062C945.486 948.062 946.723 948.575 947.688 949.601C948.653 950.566 949.136 951.773 949.136 953.221C949.136 954.729 948.653 955.996 947.688 957.022C946.723 957.987 945.486 958.47 943.978 958.47ZM982.678 1010.96C979.42 1010.96 976.464 1010.3 973.809 1008.97C971.215 1007.58 969.133 1005.68 967.565 1003.27C965.996 1000.85 965.121 998.109 964.94 995.032V982.09C965.121 978.953 965.996 976.208 967.565 973.855C969.194 971.442 971.305 969.571 973.9 968.244C976.554 966.856 979.48 966.162 982.678 966.162C986.6 966.162 990.129 967.158 993.267 969.149C996.464 971.14 998.968 973.825 1000.78 977.203C1002.59 980.582 1003.49 984.383 1003.49 988.606C1003.49 992.83 1002.59 996.631 1000.78 1000.01C998.968 1003.39 996.464 1006.07 993.267 1008.06C990.129 1009.99 986.6 1010.96 982.678 1010.96ZM960.053 1010.05V945.438H968.198V977.565L966.66 987.973L968.198 998.471V1010.05H960.053ZM981.321 1003.27C984.036 1003.27 986.419 1002.63 988.47 1001.37C990.521 1000.1 992.15 998.38 993.357 996.208C994.564 993.976 995.167 991.412 995.167 988.516C995.167 985.68 994.564 983.146 993.357 980.914C992.15 978.682 990.521 976.962 988.47 975.755C986.419 974.488 984.066 973.855 981.411 973.855C978.696 973.855 976.313 974.488 974.262 975.755C972.21 976.962 970.612 978.682 969.465 980.914C968.319 983.146 967.746 985.71 967.746 988.606C967.746 991.442 968.289 993.976 969.375 996.208C970.521 998.38 972.12 1000.1 974.171 1001.37C976.283 1002.63 978.666 1003.27 981.321 1003.27ZM1012.82 1010.05V967.067H1020.96V1010.05H1012.82ZM1016.89 958.47C1015.38 958.47 1014.14 957.987 1013.18 957.022C1012.21 955.996 1011.73 954.729 1011.73 953.221C1011.73 951.773 1012.21 950.566 1013.18 949.601C1014.14 948.575 1015.38 948.062 1016.89 948.062C1018.4 948.062 1019.63 948.575 1020.6 949.601C1021.57 950.566 1022.05 951.773 1022.05 953.221C1022.05 954.729 1021.57 955.996 1020.6 957.022C1019.63 957.987 1018.4 958.47 1016.89 958.47ZM1032.97 1010.05V967.067H1041.11V1010.05H1032.97ZM1041.11 985.529L1038.03 984.172C1038.03 978.682 1039.3 974.307 1041.83 971.049C1044.37 967.791 1048.02 966.162 1052.78 966.162C1054.96 966.162 1056.92 966.555 1058.67 967.339C1060.42 968.063 1062.05 969.3 1063.55 971.049L1058.21 976.57C1057.31 975.605 1056.31 974.911 1055.23 974.488C1054.14 974.066 1052.88 973.855 1051.43 973.855C1048.41 973.855 1045.94 974.82 1044.01 976.751C1042.08 978.682 1041.11 981.608 1041.11 985.529Z" fill="black"/>
<g clip-path="url(#clip0_1458_6445)">
<path d="M585.118 183.926C575.053 203.083 555.192 215.094 533.518 215.094H440.451C418.778 215.094 398.883 227.138 388.818 246.328L368.453 285.213C378.518 266.056 398.38 254.045 420.053 254.045H512.348C534.022 254.045 554.688 242.001 564.753 222.81L585.118 183.926Z" fill="black"/>
<path d="M544.274 261.83C534.209 280.987 514.348 292.998 492.675 292.998H399.607C377.934 292.998 358.039 305.042 347.974 324.233L327.609 363.117C337.674 343.96 357.536 331.949 379.209 331.949H471.505C493.178 331.949 513.845 319.905 523.91 300.714L544.274 261.83Z" fill="black"/>
<path d="M768.271 437.495C749.114 427.43 737.104 407.569 737.104 385.895V292.828C737.104 271.155 725.059 251.26 705.869 241.195L666.984 220.83C686.141 230.895 698.152 250.757 698.152 272.43V364.725C698.152 386.399 710.197 407.065 729.387 417.13L768.271 437.495Z" fill="black"/>
<path d="M690.379 396.665C671.222 386.6 659.213 366.739 659.213 345.065V251.998C659.213 230.325 647.169 210.43 627.978 200.365L589.094 180C608.251 190.065 620.262 209.926 620.262 231.6V323.895C620.262 345.569 632.306 366.235 651.496 376.3L690.379 396.665Z" fill="black"/>
<path d="M514.758 620.678C524.823 601.521 544.684 589.51 566.357 589.51H659.425C681.097 589.51 700.992 577.465 711.057 558.275L731.422 519.391C721.357 538.548 701.495 550.558 679.822 550.558H587.527C565.854 550.558 545.188 562.603 535.123 581.793L514.758 620.678Z" fill="black"/>
<path d="M555.594 542.77C565.659 523.613 585.52 511.602 607.193 511.602H700.26C721.933 511.602 741.828 499.557 751.893 480.367L772.258 441.482C762.193 460.639 742.332 472.65 720.658 472.65H628.363C606.69 472.65 586.023 484.695 575.959 503.885L555.594 542.77Z" fill="black"/>
<path d="M331.547 367.137C350.704 377.202 362.715 397.063 362.715 418.736V511.804C362.715 533.477 374.759 553.372 393.95 563.437L432.834 583.802C413.677 573.737 401.666 553.875 401.666 532.202V439.906C401.666 418.233 389.622 397.566 370.431 387.501L331.547 367.137Z" fill="black"/>
<path d="M409.445 407.969C428.602 418.034 440.613 437.895 440.613 459.568V552.636C440.613 574.309 452.658 594.204 471.848 604.269L510.733 624.634C491.576 614.569 479.565 594.707 479.565 573.034V480.738C479.565 459.065 467.52 438.398 448.33 428.334L409.445 407.969Z" fill="black"/>
</g>
<defs>
<clipPath id="clip0_1458_6445">
<rect width="446.213" height="446.213" fill="white" transform="translate(327.609 180)"/>
</clipPath>
</defs>
</svg>
