<svg width="99" height="59" viewBox="0 0 99 59" fill="none" xmlns="http://www.w3.org/2000/svg">
<g clip-path="url(#clip0_17_139)">
<path d="M39.4561 22.4591C39.4561 34.756 34.2815 40.1601 22.1531 40.1601C10.0247 40.1601 4.84917 34.756 4.84917 22.4591C4.84917 10.1622 10.0247 4.91709 22.1531 4.91709C34.2815 4.91709 39.4561 10.1632 39.4561 22.4591ZM22.1531 0C7.24625 0 0 7.34636 0 22.4591C0 37.5719 7.24625 45.0772 22.1531 45.0772C37.0599 45.0772 44.3053 37.5738 44.3053 22.4591C44.3053 7.3445 37.0599 0 22.1531 0Z" fill="white"/>
<path d="M76.3736 10.1852H71.6592V44.4524H76.3736V10.1852Z" fill="white"/>
<path d="M76.3736 0.626953H71.6592V5.40464H76.3736V0.626953Z" fill="white"/>
<path d="M57.91 10.9705C56.2554 11.5829 54.8529 12.4806 53.7374 13.5512V10.1815H49.0229V44.4487H53.7374V22.5695C53.7374 21.8938 53.8089 21.2535 53.9482 20.6495C55.9786 14.317 63.3294 14.5084 66.8063 15.027V10.2614C64.1342 9.93893 60.9002 10.017 57.91 10.9723" fill="white"/>
<path d="M82.9707 36.737C82.9707 40.9961 86.3761 44.4486 90.5781 44.4486H98.9995V39.6681H91.5324C89.4084 39.6681 87.6869 37.9219 87.6869 35.7687L87.6851 35.712V14.9619H98.0563V10.1814H87.6851V0.626953H82.9707V36.737Z" fill="white"/>
<path d="M4.60722 59.3965C2.57772 59.3965 1.86914 58.5917 1.86914 57.1067H3.41006C3.43847 57.7377 3.67772 58.1549 4.56872 58.1549C5.36347 58.1549 5.55506 57.825 5.55506 57.5146C5.55506 56.3112 1.97547 57.1745 1.97547 55.0008C1.97547 53.9135 2.54014 53.0111 4.46422 53.0111C6.38831 53.0111 6.96306 53.9423 6.99148 55.2043H5.45972C5.43131 54.6802 5.27822 54.2536 4.41656 54.2536C3.69881 54.2536 3.51639 54.525 3.51639 54.8456C3.51639 55.8837 7.05839 55.0398 7.05839 57.4273C7.05839 58.3399 6.53222 59.3975 4.60814 59.3975L4.60722 59.3965Z" fill="white"/>
<path d="M11.9238 59.3106V53.0999H16.3559V54.3805H13.4647V55.5347H16.0681V56.7475H13.4647V58.0281H16.3559V59.3087H11.9238V59.3106Z" fill="white"/>
<path d="M26.44 56.8437C26.44 58.2804 25.7122 59.3956 23.6258 59.3956C21.2517 59.3956 20.7539 57.8529 20.7539 56.2034C20.7539 54.5538 21.2608 53.0111 23.6258 53.0111C25.703 53.0111 26.4308 54.1951 26.4308 55.5538H24.8606C24.7652 54.7387 24.4682 54.3019 23.6258 54.3019C22.5057 54.3019 22.3242 55.1467 22.3242 56.2043C22.3242 57.2619 22.4965 58.1066 23.6258 58.1066C24.4774 58.1066 24.7652 57.6894 24.8606 56.8446H26.44V56.8437Z" fill="white"/>
<path d="M33.7022 59.3956C31.2611 59.3956 30.7441 57.8529 30.7441 56.2034C30.7441 54.5538 31.2703 53.0111 33.7022 53.0111C36.1341 53.0111 36.6796 54.5538 36.6796 56.2136C36.6796 57.8734 36.1534 59.3965 33.7022 59.3965V59.3956ZM33.7022 54.2815C32.4959 54.2815 32.3144 55.1458 32.3144 56.2034C32.3144 57.2609 32.4959 58.1057 33.7022 58.1057C34.9086 58.1057 35.1001 57.2712 35.1001 56.2136C35.1001 55.156 34.937 54.2824 33.7022 54.2824V54.2815Z" fill="white"/>
<path d="M45.4514 59.3106L43.1157 55.3702V59.3106H41.5464V53.0999H43.4512L45.72 57.0597V53.0999H47.2801V59.3106H45.4523H45.4514Z" fill="white"/>
<path d="M54.665 59.3104H52.3486V53.0997H54.7705C56.6753 53.0997 57.6616 54.2159 57.6616 56.1665C57.6616 58.1172 56.6084 59.3104 54.666 59.3104H54.665ZM54.4634 54.3803H53.8987V58.0289H54.4249C55.5542 58.0289 56.1381 57.6702 56.1381 56.1563C56.129 54.6424 55.5735 54.3803 54.4634 54.3803Z" fill="white"/>
<path d="M66.2272 59.3104V56.7771H64.0447V59.3104H62.4937V53.0997H64.0447V55.516H66.2272V53.0997H67.7782V59.3104H66.2272Z" fill="white"/>
<path d="M76.8146 59.3104L76.4791 58.2426H74.1242L73.7887 59.3104H72.1616L74.325 53.0997H76.2775L78.4408 59.3104H76.8137H76.8146ZM75.293 54.4677L74.4606 57.0875H76.1455L75.2939 54.4677H75.293Z" fill="white"/>
<path d="M86.7531 59.3106L84.4175 55.3702V59.3106H82.8481V53.0999H84.753L87.0217 57.0597V53.0999H88.5819V59.3106H86.7541H86.7531Z" fill="white"/>
<path d="M95.9668 59.3104H93.6504V53.0997H96.0722C97.9771 53.0997 98.9634 54.2159 98.9634 56.1665C98.9634 58.1172 97.9101 59.3104 95.9677 59.3104H95.9668ZM95.7661 54.3803H95.2014V58.0289H95.7276C96.8569 58.0289 97.4408 57.6702 97.4408 56.1563C97.4316 54.6424 96.8761 54.3803 95.7661 54.3803Z" fill="white"/>
</g>
<defs>
<clipPath id="clip0_17_139">
<rect width="99" height="58.3846" fill="white"/>
</clipPath>
</defs>
</svg>
