<svg width="58" height="28" viewBox="0 0 58 28" fill="none" xmlns="http://www.w3.org/2000/svg">
<path d="M10.3217 14.0539C10.3217 17.1307 9.01513 18.4826 5.95285 18.4826C2.89057 18.4826 1.58371 17.1307 1.58371 14.0539C1.58371 10.9775 2.89057 9.66486 5.95285 9.66486C9.01511 9.66489 10.3217 10.9775 10.3217 14.0539ZM5.95282 8.43457C2.18891 8.43457 0.359375 10.2727 0.359375 14.0539C0.359375 17.8356 2.18891 19.7128 5.95282 19.7128C9.71654 19.7128 11.546 17.8356 11.546 14.0539C11.546 10.2727 9.71654 8.43457 5.95282 8.43457Z" fill="#FFA979"/>
<path d="M19.6433 10.981H18.4531V19.5545H19.6433V10.981Z" fill="#FFA979"/>
<path d="M19.6433 8.59009H18.4531V9.7855H19.6433V8.59009Z" fill="#FFA979"/>
<path d="M14.9822 11.178C14.5646 11.3313 14.2105 11.5558 13.9286 11.8236V10.9804H12.7383V19.554H13.9286V14.0797C13.9286 13.9106 13.9467 13.7504 13.9819 13.5993C14.4946 12.0148 16.3505 12.0628 17.2285 12.1925V11.0002C16.5538 10.9194 15.7374 10.939 14.9822 11.178Z" fill="#FFA979"/>
<path d="M21.3087 17.6248C21.3087 18.6906 22.1687 19.5544 23.2294 19.5544H25.3557V18.3584H23.4702C22.934 18.3584 22.4993 17.9216 22.4993 17.3829L22.4989 17.3685V12.177H25.1176V10.981H22.4989V8.59009H21.3086L21.3087 17.6248Z" fill="#FFA979"/>
<path d="M55.3732 12.0737C55.2815 12.2488 55.1008 12.3586 54.9039 12.3586H54.0575C53.8601 12.3586 53.6791 12.4685 53.5877 12.644L53.4023 12.9992C53.494 12.8242 53.6747 12.7145 53.8717 12.7145H54.7112C54.9085 12.7145 55.0963 12.6045 55.1879 12.4291L55.3732 12.0737Z" fill="#FF6B00"/>
<path d="M55.0021 12.7847C54.9104 12.9597 54.7297 13.0695 54.5328 13.0695H53.6864C53.489 13.0695 53.3081 13.1794 53.2166 13.355L53.0312 13.7102C53.1229 13.5351 53.3037 13.4254 53.5006 13.4254H54.3402C54.5374 13.4254 54.7252 13.3154 54.8168 13.14L55.0021 12.7847Z" fill="#FF6B00"/>
<path d="M57.0424 14.3924C56.868 14.3003 56.7589 14.1189 56.7589 13.9209V13.0706C56.7589 12.8724 56.6494 12.6906 56.4747 12.5986L56.1211 12.4125C56.2954 12.5045 56.4046 12.6861 56.4046 12.884V13.7274C56.4046 13.9256 56.514 14.1143 56.6887 14.2064L57.0424 14.3924Z" fill="#FF6B00"/>
<path d="M56.3274 14.0161C56.1532 13.924 56.044 13.7425 56.044 13.5445V12.6942C56.044 12.496 55.9345 12.3142 55.7599 12.2223L55.4062 12.0361C55.5805 12.1283 55.6896 12.3097 55.6896 12.5077V13.3511C55.6896 13.5492 55.7992 13.738 55.9739 13.83L56.3274 14.0161Z" fill="#FF6B00"/>
<path d="M54.7345 16.0678C54.8261 15.8928 55.0068 15.783 55.2038 15.783H56.0503C56.2475 15.783 56.4285 15.673 56.5201 15.4975L56.7053 15.1423C56.6136 15.3174 56.4329 15.4271 56.2359 15.4271H55.3964C55.1991 15.4271 55.0113 15.5371 54.9197 15.7125L54.7345 16.0678Z" fill="#FF6B00"/>
<path d="M55.1094 15.3527C55.2011 15.1777 55.3818 15.068 55.5788 15.068H56.4253C56.6225 15.068 56.8035 14.958 56.8951 14.7826L57.0803 14.4272C56.9886 14.6023 56.8079 14.7121 56.6109 14.7121H55.7714C55.5741 14.7121 55.3863 14.822 55.2947 14.9975L55.1094 15.3527Z" fill="#FF6B00"/>
<path d="M53.0703 13.7496C53.2445 13.8417 53.3537 14.0231 53.3537 14.2211V15.0714C53.3537 15.2696 53.4632 15.4515 53.6379 15.5434L53.9915 15.7296C53.8172 15.6374 53.7081 15.4559 53.7081 15.2581V14.4146C53.7081 14.2164 53.5985 14.0276 53.424 13.9357L53.0703 13.7496Z" fill="#FF6B00"/>
<path d="M53.7734 14.1204C53.9477 14.2125 54.057 14.394 54.057 14.5918V15.4423C54.057 15.6405 54.1664 15.8222 54.3411 15.9142L54.6947 16.1004C54.5204 16.0082 54.4112 15.8268 54.4112 15.6288V14.7854C54.4112 14.5873 54.3018 14.3985 54.1271 14.3065L53.7734 14.1204Z" fill="#FF6B00"/>
<path d="M42.0597 27.41C34.6217 27.41 28.5703 21.3307 28.5703 13.8582C28.5703 6.3857 34.6217 0.306396 42.0597 0.306396C45.1483 0.306396 48.0546 1.32687 50.4642 3.25748C52.8028 5.1312 54.475 7.76257 55.1729 10.6669L54.8319 10.7496C53.4044 4.80826 48.1522 0.658738 42.0597 0.658738C34.815 0.658738 28.9211 6.58003 28.9211 13.8582C28.9211 21.1365 34.815 27.0577 42.0597 27.0577C47.9018 27.0577 53.0985 23.12 54.6972 17.482L55.0344 17.5784C54.247 20.3554 52.55 22.857 50.2558 24.6226C47.8864 26.4461 45.0522 27.41 42.0597 27.41Z" fill="#FF6B00"/>
<path d="M31.793 17.3586L32.3098 16.7439C32.7722 17.1674 33.5065 17.4953 34.2681 17.4953C35.5873 17.4953 36.7976 16.6892 36.988 15.4595C37.2846 13.6582 35.6032 13.2801 34.2491 13.4734L34.0914 13.3147L37.1511 10.3362H34.5164C34.3205 10.0285 34.26 9.93355 34.064 9.6258L38.7287 9.62573V9.80334L35.434 12.8846C35.4156 12.9017 35.4275 12.9325 35.4525 12.933C37.2941 12.9707 38.1139 13.9759 37.8855 15.5143C37.6272 17.2084 36.0904 18.2058 34.2953 18.2058C33.2345 18.2058 32.2961 17.8095 31.793 17.3586Z" fill="#FF6B00"/>
<path d="M38.1617 15.0791C38.3385 14.2866 38.7737 13.4123 40.5008 11.5815L41.7778 10.2354C42.1882 9.80278 42.7816 9.59672 43.3703 9.68242C42.4592 10.6115 41.3713 11.6362 40.2968 12.9067C42.8535 11.8138 44.4855 13.4533 44.1863 15.3386C43.8599 17.3334 42.2823 18.2078 40.596 18.2078C38.8961 18.2078 37.7265 17.0874 38.1617 15.0791ZM43.3159 15.2703C43.5195 14.0216 42.617 12.9594 41.0941 13.1867C40.0926 13.3362 39.2698 14.0766 39.046 15.0687C39.0412 15.0902 39.0365 15.1118 39.032 15.1338C38.7193 16.7049 39.4809 17.511 40.6776 17.511C41.8743 17.511 43.0439 16.8551 43.3159 15.2703Z" fill="#FF6B00"/>
<path d="M44.7698 13.7937C45.3547 11.0338 46.837 9.50366 48.8224 9.50366C50.8216 9.50366 51.7192 11.1295 51.1344 13.9166C50.5632 16.6765 49.0536 18.2066 47.0817 18.2066C45.0826 18.2066 44.185 16.5808 44.7698 13.7937ZM50.2368 13.8483C50.7399 11.4711 50.1279 10.2278 48.7272 10.2278C47.3265 10.2278 46.1705 11.4847 45.6673 13.862C45.2594 15.7883 45.5585 16.9496 46.3881 17.3049C46.6466 17.4278 46.9594 17.4688 47.2993 17.4415C48.6593 17.3322 49.7608 16.1163 50.2368 13.8483Z" fill="#FF6B00"/>
</svg>
