<svg width="101" height="101" viewBox="0 0 101 101" fill="none" xmlns="http://www.w3.org/2000/svg">
<path d="M57.9623 1.02638C55.6953 5.33531 51.2285 8.03509 46.3584 8.03509H25.4298C20.5521 8.03509 16.0781 10.7416 13.8141 15.0611L9.23364 23.804C11.5006 19.495 15.9675 16.7957 20.838 16.7957H41.596C46.4728 16.7957 51.1182 14.0887 53.3819 9.76964L57.964 1.02638H57.9623Z" fill="#F15D22"/>
<path d="M48.7775 18.5476C46.5105 22.857 42.0436 25.5563 37.1736 25.5563H16.245C11.3673 25.5563 6.89328 28.262 4.62925 32.5824L0.0488281 41.3252C2.31582 37.0163 6.78266 34.3169 11.6532 34.3169H32.4112C37.288 34.3169 41.9334 31.6104 44.197 27.2909L48.7792 18.5476H48.7775Z" fill="#F15D22"/>
<path d="M99.1657 58.0568C94.8564 55.7898 92.157 51.323 92.157 46.4525V25.5239C92.157 20.6462 89.4505 16.1726 85.131 13.9086L76.3882 9.32816C80.6971 11.5951 83.3965 16.062 83.3965 20.9325V41.6905C83.3965 46.5673 86.103 51.2124 90.4225 53.4764L99.1657 58.0581V58.0568Z" fill="#F15D22"/>
<path d="M81.6447 48.8721C77.3354 46.6051 74.636 42.1383 74.636 37.2682V16.3396C74.636 11.4619 71.9295 6.98788 67.61 4.72384L58.8672 0.143415C63.1761 2.40956 65.8755 6.87725 65.8755 11.7478V32.5058C65.8755 37.3826 68.582 42.0281 72.9015 44.2917L81.6447 48.8738V48.8721Z" fill="#F15D22"/>
<path d="M42.1355 99.2605C44.4025 94.9511 48.8693 92.2518 53.7394 92.2518H74.668C79.5456 92.2518 84.0197 89.5452 86.2837 85.2258L90.8641 76.4829C88.5971 80.7919 84.1303 83.4912 79.2598 83.4912H58.5018C53.625 83.4912 48.9795 86.1978 46.7159 90.5172L42.1338 99.2605H42.1355Z" fill="#F15D22"/>
<path d="M51.3203 81.7393C53.5873 77.4303 58.0541 74.7305 62.9242 74.7305H83.8528C88.7305 74.7305 93.2045 72.024 95.4685 67.7045L100.049 58.9617C97.7819 63.2706 93.3151 65.97 88.4446 65.97H67.6866C62.8098 65.97 58.1643 68.6769 55.9007 72.996L51.3186 81.7393H51.3203Z" fill="#F15D22"/>
<path d="M0.931885 42.2303C5.24081 44.4973 7.94017 48.9641 7.94017 53.8342V74.7628C7.94017 79.6405 10.6471 84.1145 14.9662 86.3786L23.7094 90.959C19.4005 88.692 16.7007 84.2251 16.7007 79.3546V58.5966C16.7007 53.7198 13.9942 49.0743 9.67472 46.8107L0.931885 42.2286V42.2303Z" fill="#F15D22"/>
<path d="M18.4531 51.4149C22.762 53.6823 25.4614 58.1487 25.4614 63.0192V83.9478C25.4614 88.8255 28.1684 93.2991 32.4874 95.5631L41.2307 100.144C36.9218 97.8766 34.222 93.4097 34.222 88.5392V67.7816C34.222 62.9048 31.5154 58.2593 27.196 55.9957L18.4531 51.4136V51.4149Z" fill="#F15D22"/>
</svg>
