<svg width="22" height="23" viewBox="0 0 22 23" fill="none" xmlns="http://www.w3.org/2000/svg">
<path d="M13.5283 15.9605C13.9411 16.3732 14.3746 16.6193 14.825 16.763L12.3175 19.2647C11.9221 19.6595 11.3854 19.8812 10.8267 19.8812C10.3378 19.8811 9.86613 19.7117 9.49113 19.4047L9.33699 19.2647L6.87891 16.8124C7.10777 16.7577 7.30795 16.6892 7.4849 16.6089C7.83244 16.4509 8.06691 16.2607 8.22973 16.1075L8.37093 15.9687L10.9537 13.386L13.5283 15.9605Z" stroke="#00BDAE" stroke-width="1.20492"/>
<path d="M10.856 3.0127C11.3447 3.0127 11.8165 3.18247 12.1915 3.48925L12.3468 3.62928L14.8485 6.12501C14.4352 6.25209 14.0318 6.46297 13.6542 6.81219L13.5117 6.95221L10.956 9.50796L8.37319 6.92515C8.22918 6.78115 7.97242 6.51237 7.51303 6.29798C7.33548 6.21515 7.13376 6.14333 6.90234 6.08618L9.36631 3.62928C9.71211 3.2839 10.1656 3.07125 10.6477 3.02329L10.856 3.0127Z" stroke="#00BDAE" stroke-width="1.20492"/>
<path d="M5.99002 8.04321C6.28381 8.04321 6.56391 8.14602 6.78428 8.3268L6.87489 8.40917L9.60361 11.1461L9.61184 11.1544C9.72758 11.2659 9.85714 11.3601 9.99427 11.4391C9.91258 11.4871 9.83297 11.5403 9.75776 11.6015L9.61302 11.7321L6.88901 14.4561C6.64398 14.6946 6.32308 14.8267 5.99945 14.8267H4.91219L3.02009 12.9253C2.62535 12.5301 2.40248 11.9942 2.40234 11.4356C2.40234 10.9468 2.5721 10.4751 2.87889 10.1001L3.01891 9.94473L4.91219 8.04321H5.99002ZM15.8953 8.06086H16.7825L18.6405 9.9259L18.6417 9.92826C18.9933 10.2785 19.211 10.7379 19.2617 11.2273L19.2735 11.4391C19.2757 11.9352 19.1059 12.4144 18.797 12.7969L18.6558 12.9547L16.8014 14.8173H15.9129C15.6193 14.8173 15.3402 14.7146 15.1198 14.5338L15.0292 14.4526L12.3087 11.7321C12.1908 11.6141 12.0596 11.5171 11.9217 11.4368C12.0019 11.3894 12.0807 11.338 12.1546 11.2779L12.2994 11.1473L15.0222 8.42446C15.2365 8.19885 15.5634 8.06086 15.8953 8.06086Z" stroke="#00BDAE" stroke-width="1.20492"/>
</svg>
